<?xml version="1.0" standalone="no"?>
<!DOCTYPE svg PUBLIC "-//W3C//DTD SVG 20010904//EN"
 "http://www.w3.org/TR/2001/REC-SVG-20010904/DTD/svg10.dtd">
<svg version="1.0" xmlns="http://www.w3.org/2000/svg"
 width="300.000000pt" height="300.000000pt" viewBox="0 0 300.000000 300.000000"
 preserveAspectRatio="xMidYMid meet">
<metadata>
Created by potrace 1.10, written by Peter Selinger 2001-2011
</metadata>
<g transform="translate(0.000000,300.000000) scale(0.100000,-0.100000)"
fill="#000000" stroke="none">
<path d="M715 1737 c-56 -22 -92 -46 -124 -82 -53 -61 -39 -94 65 -141 41 -18
77 -41 80 -49 9 -23 -24 -55 -84 -81 -84 -38 -116 -30 -67 16 31 29 32 40 2
40 -28 0 -83 -55 -92 -92 -9 -36 30 -63 77 -53 37 8 165 67 188 87 27 23 50
62 50 84 0 28 -49 70 -117 100 -52 23 -64 42 -45 70 15 24 86 64 113 64 32 0
34 3 19 31 -12 22 -22 22 -65 6z m-83 -174 c12 -14 11 -15 -8 -5 -26 14 -36
36 -27 59 5 14 8 12 14 -11 4 -15 14 -34 21 -43z m153 -113 c-5 -7 -12 -2 -21
15 -20 38 -17 43 7 18 12 -12 18 -26 14 -33z m-216 -117 c2 -2 -5 -3 -17 -3
-14 0 -22 6 -22 16 0 14 3 15 18 3 9 -7 19 -15 21 -16z"/>
<path d="M1295 1699 c4 -11 -3 -83 -16 -160 -24 -149 -21 -172 20 -150 22 12
23 15 39 125 11 67 34 115 62 124 11 4 12 -20 8 -127 -3 -72 -2 -134 3 -137 5
-3 17 0 28 5 14 8 22 29 30 78 35 208 52 216 65 28 3 -60 8 -73 31 -92 24 -21
85 -32 85 -16 0 4 -11 18 -24 32 -18 20 -26 46 -35 115 -19 143 -44 182 -86
136 -21 -23 -35 -26 -35 -7 0 8 -9 22 -19 31 -21 19 -45 12 -71 -18 -15 -19
-30 -21 -30 -3 0 14 -41 57 -54 57 -4 0 -4 -9 -1 -21z m175 -89 c0 -3 -7 -27
-14 -55 l-14 -50 -1 62 c-1 34 -4 70 -7 80 -4 13 0 11 15 -7 11 -14 21 -27 21
-30z m-131 8 c-17 -34 -19 -34 -19 -5 0 18 5 27 15 27 13 0 14 -4 4 -22z"/>
<path d="M2315 1700 c6 -18 -19 -242 -30 -272 -3 -7 -1 -19 4 -27 7 -11 15
-11 45 -1 20 6 36 18 36 26 0 10 11 6 38 -15 40 -32 84 -47 102 -36 12 7 -49
55 -69 55 -15 0 -13 11 4 34 22 29 18 55 -10 68 -22 10 -29 8 -51 -13 l-26
-24 7 93 c6 81 5 95 -10 112 -24 26 -48 26 -40 0z m33 -241 c-4 -28 -28 -38
-28 -11 0 11 3 28 6 37 9 23 27 3 22 -26z m63 6 c0 -5 -9 -11 -21 -13 -15 -3
-18 1 -14 13 7 17 35 17 35 0z"/>
<path d="M2222 1638 c2 -15 11 -24 26 -26 20 -3 23 0 20 20 -2 15 -11 24 -26
26 -20 3 -23 0 -20 -20z"/>
<path d="M870 1630 c0 -5 11 -12 25 -16 33 -8 65 -49 65 -83 0 -33 -36 -94
-53 -88 -16 5 -21 51 -8 76 7 13 17 17 32 14 30 -8 22 28 -11 44 -20 10 -29 9
-51 -4 -82 -48 -58 -193 31 -193 36 0 90 46 90 77 0 14 3 13 13 -7 17 -34 44
-37 74 -8 18 15 24 18 21 7 -4 -9 -9 -41 -13 -71 -6 -44 -4 -58 10 -71 23 -23
44 -22 38 2 -3 11 5 67 17 125 24 112 22 136 -10 136 -14 0 -27 -15 -45 -51
-31 -60 -50 -59 -50 1 0 47 -22 68 -32 30 -6 -22 -7 -21 -22 11 -9 18 -31 44
-50 56 -35 24 -71 30 -71 13z m264 -138 c-4 -18 -10 -32 -15 -32 -12 0 -11 13
1 46 14 35 22 26 14 -14z m-256 -60 c16 -24 16 -25 -5 -14 -26 15 -37 44 -26
75 7 21 8 20 11 -7 2 -16 11 -40 20 -54z m132 65 c0 -8 -7 -14 -15 -14 -16 0
-19 9 -8 20 11 11 23 8 23 -6z"/>
<path d="M2180 1594 c0 -4 7 -12 15 -18 12 -9 13 -18 5 -48 -8 -26 -8 -49 0
-75 18 -68 26 -68 43 -1 32 125 32 126 0 134 -15 3 -36 8 -45 11 -10 2 -18 1
-18 -3z"/>
<path d="M1904 1568 c3 -13 1 -49 -6 -81 -13 -69 -5 -82 40 -66 25 8 34 19 42
50 6 21 14 39 18 39 3 0 27 -20 52 -45 41 -41 110 -71 110 -49 -1 20 -107 139
-127 142 -12 2 -31 -6 -42 -17 -24 -24 -31 -26 -31 -8 0 14 -41 57 -54 57 -5
0 -6 -10 -2 -22z m46 -83 c0 -13 -5 -27 -11 -30 -15 -10 -17 -4 -12 32 6 37
23 35 23 -2z m115 15 c10 -11 16 -20 13 -20 -3 0 -13 9 -23 20 -10 11 -16 20
-13 20 3 0 13 -9 23 -20z"/>
<path d="M1766 1565 c-42 -15 -92 -58 -102 -87 -8 -26 22 -68 49 -68 12 0 39
9 58 19 l36 20 13 -27 c11 -25 13 -26 25 -8 17 23 30 95 18 107 -4 4 -28 -9
-52 -31 -45 -40 -81 -52 -81 -26 0 19 52 62 95 77 41 15 44 24 13 33 -29 7
-26 8 -72 -9z"/>
</g>
</svg>
