<?xml version="1.0" standalone="no"?>
<!DOCTYPE svg PUBLIC "-//W3C//DTD SVG 20010904//EN"
 "http://www.w3.org/TR/2001/REC-SVG-20010904/DTD/svg10.dtd">
<svg version="1.0" xmlns="http://www.w3.org/2000/svg"
 width="300.000000pt" height="129.000000pt" viewBox="0 0 300.000000 129.000000"
 preserveAspectRatio="xMidYMid meet">
<metadata>
Created by potrace 1.10, written by Peter Selinger 2001-2011
</metadata>
<g transform="translate(0.000000,129.000000) scale(0.100000,-0.100000)"
fill="#000000" stroke="none">
<path d="M625 911 c-69 -32 -145 -108 -145 -144 0 -30 27 -54 123 -108 42 -23
77 -49 77 -56 0 -7 -10 -23 -21 -34 -23 -23 -139 -79 -164 -79 -23 0 -18 24
10 50 50 47 16 64 -41 21 -26 -19 -64 -76 -64 -94 0 -24 35 -47 71 -47 40 0
175 57 224 95 43 32 69 79 61 110 -7 27 -59 70 -133 110 -56 30 -63 46 -38 82
18 25 95 63 130 63 27 0 32 16 11 43 -17 23 -30 21 -101 -12z m-57 -191 c13
-20 12 -21 -7 -10 -30 16 -54 57 -46 77 6 15 9 13 23 -13 10 -18 23 -42 30
-54z m73 -35 c24 -14 40 -25 36 -25 -11 0 -87 39 -87 45 0 8 7 6 51 -20z m99
-86 c0 -5 -4 -9 -10 -9 -9 0 -40 52 -40 67 1 11 50 -46 50 -58z m-44 -47 c-18
-16 -18 -16 -6 6 6 13 14 21 18 18 3 -4 -2 -14 -12 -24z m-222 -77 c11 -8 17
-18 14 -21 -11 -10 -48 7 -48 22 0 18 10 17 34 -1z"/>
<path d="M1316 883 c3 -16 -4 -91 -15 -168 -26 -176 -26 -195 -3 -195 31 0 48
31 61 110 18 107 52 179 84 180 5 0 7 -65 6 -145 -2 -79 0 -148 4 -152 5 -4
16 -3 25 3 16 10 22 32 64 214 7 30 18 54 23 53 6 -1 15 -52 22 -112 6 -61 14
-115 18 -121 3 -5 20 -17 37 -26 67 -35 95 -22 55 26 -17 19 -29 51 -36 97
-23 134 -33 173 -50 195 l-18 22 -33 -28 -33 -27 -14 30 c-8 16 -21 32 -30 35
-18 7 -69 -18 -76 -39 -7 -18 -27 -20 -27 -3 0 15 -48 78 -60 78 -5 0 -7 -12
-4 -27z m198 -128 c-4 -16 -12 -48 -19 -70 l-13 -40 -1 75 c-1 41 -4 86 -7
100 -5 25 -5 24 20 -5 21 -24 25 -36 20 -60z m-146 30 c-11 -25 -28 -34 -28
-14 0 6 5 19 11 30 15 28 31 13 17 -16z m232 14 c0 -6 -4 -7 -10 -4 -5 3 -10
11 -10 16 0 6 5 7 10 4 6 -3 10 -11 10 -16z m-258 -109 c-6 -43 -12 -37 -12
13 0 25 4 37 8 29 5 -7 7 -26 4 -42z m307 -117 c1 -7 -3 -13 -9 -13 -5 0 -10
15 -9 33 0 27 2 29 9 12 5 -11 9 -26 9 -32z"/>
<path d="M2480 838 c0 -35 -7 -114 -16 -176 -11 -78 -13 -117 -6 -124 13 -13
78 7 86 27 4 11 17 6 57 -20 30 -21 63 -35 82 -35 29 0 30 1 13 19 -10 11 -33
27 -51 36 l-34 15 20 35 c23 39 15 69 -23 81 -17 5 -28 0 -48 -23 l-26 -29 4
115 c4 102 3 116 -14 128 -36 26 -44 17 -44 -49z m130 -188 c0 -5 -2 -10 -4
-10 -3 0 -8 5 -11 10 -3 6 -1 10 4 10 6 0 11 -4 11 -10z m-90 -34 c0 -13 -7
-29 -15 -36 -13 -11 -15 -7 -15 22 0 19 3 38 6 41 12 11 24 -3 24 -27z m70 0
c0 -17 -27 -29 -35 -16 -4 6 -3 15 0 20 9 15 35 12 35 -4z"/>
<path d="M2375 830 c-10 -16 14 -50 35 -50 26 0 27 36 1 50 -24 12 -28 13 -36
0z"/>
<path d="M835 810 c-3 -5 7 -16 23 -24 48 -25 84 -75 77 -105 -10 -41 -39 -86
-59 -89 -15 -3 -17 3 -14 45 3 44 5 48 31 51 32 4 34 15 7 42 -27 27 -51 25
-82 -7 -35 -36 -46 -69 -40 -115 6 -52 42 -88 86 -88 42 0 91 38 101 77 l7 28
14 -27 c16 -31 47 -36 78 -13 27 20 39 19 28 -2 -5 -10 -12 -43 -16 -74 -5
-51 -4 -58 19 -79 14 -13 26 -22 28 -19 8 12 48 291 43 304 -11 29 -43 16 -69
-28 -14 -24 -33 -49 -41 -56 -16 -14 -22 0 -28 63 -3 30 -28 50 -28 22 0 -26
-17 -18 -39 18 -26 42 -38 51 -84 71 -21 9 -38 11 -42 5z m10 -119 c-3 -6 -11
-11 -17 -11 -6 0 -6 6 2 15 14 17 26 13 15 -4z m286 -54 c-6 -15 -15 -27 -21
-27 -13 0 -13 4 7 48 18 42 31 23 14 -21z m-137 24 c7 -10 -22 -37 -30 -28 -9
8 3 37 15 37 5 0 12 -4 15 -9z m-174 -19 c0 -10 9 -34 19 -55 22 -42 17 -46
-16 -15 -23 22 -33 88 -13 88 6 0 10 -8 10 -18z"/>
<path d="M2330 764 c0 -4 7 -15 15 -24 13 -14 14 -26 6 -60 -7 -31 -6 -55 5
-91 8 -27 18 -49 22 -49 7 0 53 170 52 193 0 14 -100 45 -100 31z"/>
<path d="M2010 713 c0 -26 -3 -72 -6 -100 l-7 -53 30 0 c30 0 73 35 73 59 0 7
5 21 10 32 10 18 14 17 56 -23 50 -47 99 -77 127 -78 15 0 16 3 7 20 -17 32
-131 150 -145 150 -7 0 -24 -9 -38 -20 -31 -25 -47 -25 -47 -2 0 11 -8 26 -17
34 -39 33 -43 31 -43 -19z m202 -78 c11 -20 11 -20 -11 0 -13 11 -28 29 -33
40 -11 20 -11 20 11 0 13 -11 28 -29 33 -40z m-148 -12 c-11 -32 -30 -32 -26
0 4 40 11 52 24 39 8 -8 9 -20 2 -39z"/>
<path d="M1890 740 c-71 -20 -150 -85 -150 -124 0 -25 38 -66 61 -66 8 0 32 9
54 20 50 25 53 25 61 -5 4 -14 11 -24 17 -22 15 5 38 77 35 111 l-3 28 -50
-34 c-78 -54 -92 -60 -99 -43 -7 20 48 71 101 92 24 10 42 22 40 27 -5 15 -40
23 -67 16z m-98 -120 c-4 -28 -22 -33 -22 -6 0 9 19 36 25 36 1 0 0 -13 -3
-30z"/>
</g>
</svg>
